<?xml version="1.0" ?><!DOCTYPE svg  PUBLIC '-//W3C//DTD SVG 1.1//EN'  'http://www.w3.org/Graphics/SVG/1.1/DTD/svg11.dtd'><svg enable-background="new 0 0 100 100" height="100px" id="Albania" version="1.1" viewBox="0 0 100 100" width="100px" xml:space="preserve" xmlns="http://www.w3.org/2000/svg" xmlns:xlink="http://www.w3.org/1999/xlink"><g><g><path d="M93.294,75H6.706C15.354,89.939,31.498,100,50,100C68.505,100,84.648,89.939,93.294,75z" fill="#CE1126"/><path d="M100,50H0c0,9.109,2.448,17.645,6.706,25h86.588C97.552,67.645,100,59.109,100,50z" fill="#003893"/><path d="M50,0C22.387,0,0,22.385,0,50h100C100,22.385,77.615,0,50,0z" fill="#FCD116"/></g></g><g><radialGradient cx="-1150.0137" cy="7049.0078" gradientTransform="matrix(-1 0 0 -1 -1100.0137 7099.0078)" gradientUnits="userSpaceOnUse" id="SVGID_1_" r="50"><stop offset="0.6" style="stop-color:#FFFFFF;stop-opacity:0"/><stop offset="1" style="stop-color:#000000;stop-opacity:0.5"/></radialGradient><circle cx="50" cy="50" enable-background="new    " fill="url(#SVGID_1_)" opacity="0.4" r="50"/><linearGradient gradientTransform="matrix(-0.7 0 0 -0.5 -1200.1115 6931.0508)" gradientUnits="userSpaceOnUse" id="SVGID_2_" x1="-1785.8726" x2="-1785.8726" y1="13766.1016" y2="13850.1016"><stop offset="0" style="stop-color:#FFFFFF;stop-opacity:0"/><stop offset="1" style="stop-color:#FFFFFF;stop-opacity:0.4"/></linearGradient><path d="M19,27.001C19,15.401,32.879,6,49.998,6c17.121,0,31.001,9.401,31.001,21.001   C80.999,38.598,67.119,48,49.998,48C32.879,48,19,38.598,19,27.001z" fill="url(#SVGID_2_)"/><linearGradient gradientTransform="matrix(-0.7 0 0 0.5 -1200.1115 -235.5449)" gradientUnits="userSpaceOnUse" id="SVGID_3_" x1="-1785.873" x2="-1785.873" y1="671.0898" y2="617.6787"><stop offset="0" style="stop-color:#FFFFFF;stop-opacity:0.35"/><stop offset="0.85" style="stop-color:#FFFFFF;stop-opacity:0"/></linearGradient><path d="M49.998,75.404c19.888,0,36.001-6.578,36.001,3.498S69.886,100,49.998,100   C30.116,100,14,88.979,14,78.902C14,68.825,30.116,75.404,49.998,75.404z" fill="url(#SVGID_3_)"/></g></svg>